<svg width="73" height="72" viewBox="0 0 73 72" fill="none" xmlns="http://www.w3.org/2000/svg">
<rect x="0.333984" width="72" height="72" rx="36" fill="#ECF8ED"/>
<path d="M23.334 23C22.7817 23 22.334 23.4477 22.334 24C22.334 24.5523 22.7817 25 23.334 25H25.1816C25.4081 25 25.6063 25.1523 25.6647 25.3712L29.075 38.1598C26.923 38.718 25.334 40.6734 25.334 43C25.334 43.5523 25.7817 44 26.334 44H47.334C47.8863 44 48.334 43.5523 48.334 43C48.334 42.4477 47.8863 42 47.334 42H27.5047C27.9165 40.8348 29.0278 40 30.334 40H45.2917C45.6741 40 46.0231 39.7819 46.1906 39.4381C47.7042 36.332 49.0251 33.1147 50.1376 29.8017C50.2261 29.5381 50.2009 29.2496 50.068 29.0053C49.9351 28.7611 49.7065 28.5832 49.4371 28.5144C43.008 26.8726 36.2722 26 29.334 26C28.8569 26 28.3807 26.0041 27.9056 26.0123L27.5972 24.8558C27.3053 23.7615 26.3142 23 25.1816 23H23.334Z" fill="#2E7D32"/>
<path d="M25.334 47C25.334 45.8954 26.2294 45 27.334 45C28.4386 45 29.334 45.8954 29.334 47C29.334 48.1046 28.4386 49 27.334 49C26.2294 49 25.334 48.1046 25.334 47Z" fill="#2E7D32"/>
<path d="M42.334 47C42.334 45.8954 43.2294 45 44.334 45C45.4386 45 46.334 45.8954 46.334 47C46.334 48.1046 45.4386 49 44.334 49C43.2294 49 42.334 48.1046 42.334 47Z" fill="#2E7D32"/>
</svg>
