<svg width="52" height="52" viewBox="0 0 52 52" fill="none" xmlns="http://www.w3.org/2000/svg">
<rect width="52" height="52" rx="26" fill="#F5F5F5"/>
<path d="M35.3333 14H16.6667C15.1939 14 14 15.1939 14 16.6667V35.3333C14 36.8061 15.1939 38 16.6667 38H35.3333C36.8061 38 38 36.8061 38 35.3333V16.6667C38 15.1939 36.8061 14 35.3333 14Z" stroke="#A3A3A3" stroke-linecap="round" stroke-linejoin="round"/>
<path d="M21.9997 24.6668C23.4724 24.6668 24.6663 23.4729 24.6663 22.0002C24.6663 20.5274 23.4724 19.3335 21.9997 19.3335C20.5269 19.3335 19.333 20.5274 19.333 22.0002C19.333 23.4729 20.5269 24.6668 21.9997 24.6668Z" stroke="#A3A3A3" stroke-linecap="round" stroke-linejoin="round"/>
<path d="M38 29.9999L33.8853 25.8853C33.3853 25.3853 32.7071 25.1045 32 25.1045C31.2929 25.1045 30.6147 25.3853 30.1147 25.8853L18 37.9999" stroke="#A3A3A3" stroke-linecap="round" stroke-linejoin="round"/>
</svg>
