<svg width="72" height="72" viewBox="0 0 72 72" fill="none" xmlns="http://www.w3.org/2000/svg">
<rect width="72" height="72" rx="36" fill="#ECF8ED"/>
<path d="M45.3337 48V45.3333C45.3337 43.9188 44.7718 42.5623 43.7716 41.5621C42.7714 40.5619 41.4148 40 40.0003 40H32.0003C30.5858 40 29.2293 40.5619 28.2291 41.5621C27.2289 42.5623 26.667 43.9188 26.667 45.3333V48" fill="#2E7D32"/>
<path d="M45.3337 48V45.3333C45.3337 43.9188 44.7718 42.5623 43.7716 41.5621C42.7714 40.5619 41.4148 40 40.0003 40H32.0003C30.5858 40 29.2293 40.5619 28.2291 41.5621C27.2289 42.5623 26.667 43.9188 26.667 45.3333V48" stroke="#2E7D32" stroke-linecap="round" stroke-linejoin="round"/>
<path d="M36.0003 34.6667C38.9458 34.6667 41.3337 32.2789 41.3337 29.3333C41.3337 26.3878 38.9458 24 36.0003 24C33.0548 24 30.667 26.3878 30.667 29.3333C30.667 32.2789 33.0548 34.6667 36.0003 34.6667Z" fill="#2E7D32" stroke="#2E7D32" stroke-linecap="round" stroke-linejoin="round"/>
</svg>
