<svg width="73" height="72" viewBox="0 0 73 72" fill="none" xmlns="http://www.w3.org/2000/svg">
<rect x="0.666992" width="72" height="72" rx="36" fill="#ECF8ED"/>
<rect x="20.667" y="20" width="32" height="32" rx="16" fill="#CBE9CC"/>
<path fill-rule="evenodd" clip-rule="evenodd" d="M27.8867 27.2197C28.1796 26.9268 28.6544 26.9268 28.9473 27.2197L32.917 31.1893L32.917 28.5C32.917 28.0858 33.2528 27.75 33.667 27.75C34.0812 27.75 34.417 28.0858 34.417 28.5L34.417 33C34.417 33.4142 34.0812 33.75 33.667 33.75H29.167C28.7528 33.75 28.417 33.4142 28.417 33C28.417 32.5858 28.7528 32.25 29.167 32.25L31.8563 32.25L27.8867 28.2803C27.5938 27.9874 27.5938 27.5126 27.8867 27.2197ZM45.4473 27.2197C45.7402 27.5126 45.7402 27.9874 45.4473 28.2803L41.4777 32.25H44.167C44.5812 32.25 44.917 32.5858 44.917 33C44.917 33.4142 44.5812 33.75 44.167 33.75H39.667C39.2528 33.75 38.917 33.4142 38.917 33V28.5C38.917 28.0858 39.2528 27.75 39.667 27.75C40.0812 27.75 40.417 28.0858 40.417 28.5V31.1893L44.3867 27.2197C44.6796 26.9268 45.1544 26.9268 45.4473 27.2197ZM28.417 39C28.417 38.5858 28.7528 38.25 29.167 38.25L33.667 38.25C34.0812 38.25 34.417 38.5858 34.417 39V43.5C34.417 43.9142 34.0812 44.25 33.667 44.25C33.2528 44.25 32.917 43.9142 32.917 43.5L32.917 40.8107L28.9473 44.7803C28.6544 45.0732 28.1796 45.0732 27.8867 44.7803C27.5938 44.4874 27.5938 44.0126 27.8867 43.7197L31.8563 39.75H29.167C28.7528 39.75 28.417 39.4142 28.417 39ZM38.917 39C38.917 38.5858 39.2528 38.25 39.667 38.25H44.167C44.5812 38.25 44.917 38.5858 44.917 39C44.917 39.4142 44.5812 39.75 44.167 39.75H41.4777L45.4473 43.7197C45.7402 44.0126 45.7402 44.4874 45.4473 44.7803C45.1544 45.0732 44.6796 45.0732 44.3867 44.7803L40.417 40.8107V43.5C40.417 43.9142 40.0812 44.25 39.667 44.25C39.2528 44.25 38.917 43.9142 38.917 43.5L38.917 39Z" fill="#2E7D32"/>
</svg>
