<svg width="62" height="62" viewBox="0 0 62 62" fill="none" xmlns="http://www.w3.org/2000/svg">
<path d="M3.5 31C3.5 15.8122 15.8122 3.5 31 3.5C46.1878 3.5 58.5 15.8122 58.5 31C58.5 46.1878 46.1878 58.5 31 58.5C15.8122 58.5 3.5 46.1878 3.5 31Z" fill="#FEF9C3"/>
<path d="M3.5 31C3.5 15.8122 15.8122 3.5 31 3.5C46.1878 3.5 58.5 15.8122 58.5 31C58.5 46.1878 46.1878 58.5 31 58.5C15.8122 58.5 3.5 46.1878 3.5 31Z" stroke="#FEFCE8" stroke-width="7"/>
<path d="M41.5401 37.4999L32.8735 22.3333C32.6845 21.9998 32.4105 21.7225 32.0793 21.5295C31.7482 21.3365 31.3718 21.2349 30.9885 21.2349C30.6052 21.2349 30.2288 21.3365 29.8976 21.5295C29.5665 21.7225 29.2925 21.9998 29.1035 22.3333L20.4368 37.4999C20.2458 37.8307 20.1456 38.2061 20.1465 38.5881C20.1473 38.9701 20.2492 39.3451 20.4416 39.6751C20.6341 40.005 20.9104 40.2782 21.2425 40.467C21.5746 40.6557 21.9507 40.7534 22.3326 40.7499H39.666C40.0461 40.7495 40.4195 40.6491 40.7485 40.4588C41.0776 40.2685 41.3508 39.9949 41.5407 39.6656C41.7306 39.3363 41.8305 38.9628 41.8304 38.5827C41.8303 38.2026 41.7302 37.8291 41.5401 37.4999Z" stroke="#854D0E" stroke-linecap="round" stroke-linejoin="round"/>
<path d="M31 27.75V32.0833" stroke="#854D0E" stroke-linecap="round" stroke-linejoin="round"/>
<path d="M31 36.4165H31.0108" stroke="#854D0E" stroke-linecap="round" stroke-linejoin="round"/>
</svg>
