<svg width="6" height="10" viewBox="0 0 6 10" fill="none" xmlns="http://www.w3.org/2000/svg">
<path d="M4.86015 9.39328L1.14015 5.66661C1.01598 5.5417 0.946289 5.37274 0.946289 5.19661C0.946289 5.02049 1.01598 4.85152 1.14015 4.72661L4.86015 0.999945C4.9534 0.905925 5.07253 0.841805 5.20236 0.815759C5.3322 0.789712 5.46684 0.80292 5.58914 0.853698C5.71143 0.904475 5.81584 0.990523 5.88904 1.10087C5.96224 1.21122 6.00092 1.34086 6.00015 1.47328V8.91994C6.00092 9.05236 5.96224 9.18201 5.88904 9.29235C5.81584 9.4027 5.71143 9.48875 5.58914 9.53953C5.46684 9.5903 5.3322 9.60351 5.20236 9.57747C5.07253 9.55142 4.9534 9.4873 4.86015 9.39328Z" fill="#2E7D32"/>
</svg>
