<svg width="14" height="14" viewBox="0 0 14 14" fill="none" xmlns="http://www.w3.org/2000/svg">
<path d="M10.5 0.937918C11.5641 1.5523 12.4478 2.43596 13.0622 3.5001C13.6766 4.56423 14 5.77134 14 7.0001C14 8.22885 13.6765 9.43596 13.0621 10.5001C12.4478 11.5642 11.5641 12.4479 10.4999 13.0622C9.43577 13.6766 8.22865 14 6.99989 14C5.77112 14 4.56401 13.6765 3.49988 13.0621C2.43576 12.4477 1.5521 11.564 0.937744 10.4999C0.323386 9.43574 -3.12128e-05 8.22863 2.25936e-09 6.99987L0.00350008 6.77307C0.0427022 5.56418 0.394483 4.38607 1.02455 3.3536C1.65461 2.32113 2.54146 1.46953 3.59862 0.881836C4.65579 0.294142 5.8472 -0.00959748 7.0567 0.00023117C8.26621 0.0100598 9.45252 0.333121 10.5 0.937918ZM7 2.7999C6.81435 2.7999 6.6363 2.87365 6.50503 3.00493C6.37375 3.1362 6.3 3.31425 6.3 3.4999C5.74305 3.4999 5.2089 3.72115 4.81508 4.11497C4.42125 4.50879 4.2 5.04293 4.2 5.59988C4.2 6.15683 4.42125 6.69097 4.81508 7.0848C5.2089 7.47862 5.74305 7.69987 6.3 7.69987V9.09986C6.18391 9.10629 6.06801 9.08427 5.96236 9.03572C5.85671 8.98716 5.76452 8.91354 5.6938 8.82126L5.6462 8.75056C5.55043 8.59611 5.39834 8.48496 5.2221 8.44061C5.04585 8.39626 4.85927 8.4222 4.7018 8.51293C4.54434 8.60367 4.42833 8.75208 4.37832 8.9268C4.3283 9.10152 4.3482 9.28884 4.4338 9.44915C4.61247 9.75902 4.86732 10.0181 5.17419 10.2019C5.48107 10.3856 5.82979 10.4879 6.1873 10.4991H6.3C6.29985 10.6707 6.36272 10.8364 6.47667 10.9646C6.59062 11.0929 6.7477 11.1749 6.9181 11.1949L7 11.1998C7.18565 11.1998 7.3637 11.1261 7.49497 10.9948C7.62625 10.8635 7.7 10.6855 7.7 10.4998L7.8232 10.4963C8.36892 10.4648 8.88084 10.2217 9.25018 9.81873C9.61951 9.41575 9.81716 8.88463 9.80112 8.33824C9.78508 7.79184 9.55661 7.27324 9.16427 6.89261C8.77193 6.51199 8.24663 6.29935 7.7 6.29988V4.89989C7.9506 4.89149 8.1697 4.99789 8.3062 5.17849L8.3538 5.24919C8.44957 5.40364 8.60166 5.51479 8.7779 5.55914C8.95415 5.60348 9.14073 5.57755 9.29819 5.48681C9.45566 5.39608 9.57167 5.24766 9.62168 5.07294C9.6717 4.89823 9.6518 4.71091 9.5662 4.55059C9.38762 4.2406 9.1328 3.98137 8.82592 3.79749C8.51904 3.6136 8.17028 3.51117 7.8127 3.4999H7.7C7.7 3.31425 7.62625 3.1362 7.49497 3.00493C7.3637 2.87365 7.18565 2.7999 7 2.7999ZM7.7 7.69987C7.88565 7.69987 8.0637 7.77362 8.19497 7.90489C8.32625 8.03617 8.4 8.21421 8.4 8.39986C8.4 8.58551 8.32625 8.76356 8.19497 8.89483C8.0637 9.02611 7.88565 9.09986 7.7 9.09986V7.69987ZM6.3 4.89989V6.29988C6.11435 6.29988 5.9363 6.22613 5.80503 6.09485C5.67375 5.96358 5.6 5.78553 5.6 5.59988C5.6 5.41423 5.67375 5.23619 5.80503 5.10491C5.9363 4.97364 6.11435 4.89989 6.3 4.89989Z" fill="#2E7D32"/>
</svg>
