<svg width="46" height="46" viewBox="0 0 46 46" fill="none" xmlns="http://www.w3.org/2000/svg">
<path d="M0 23C0 10.2975 10.2975 0 23 0C35.7025 0 46 10.2975 46 23C46 35.7025 35.7025 46 23 46C10.2975 46 0 35.7025 0 23Z" fill="#2E7D32"/>
<path d="M15.0664 28C14.7784 28 14.5544 27.9253 14.3944 27.776C14.2451 27.616 14.1704 27.392 14.1704 27.104V17.616C14.1704 17.328 14.2451 17.1093 14.3944 16.96C14.5544 16.8 14.7784 16.72 15.0664 16.72H20.9064C21.1304 16.72 21.3011 16.7787 21.4184 16.896C21.5358 17.0027 21.5944 17.1627 21.5944 17.376C21.5944 17.6 21.5358 17.7707 21.4184 17.888C21.3011 18.0053 21.1304 18.064 20.9064 18.064H15.7704V21.6H20.5544C20.7891 21.6 20.9598 21.6587 21.0664 21.776C21.1838 21.8933 21.2424 22.0587 21.2424 22.272C21.2424 22.496 21.1838 22.6667 21.0664 22.784C20.9598 22.8907 20.7891 22.944 20.5544 22.944H15.7704V26.656H20.9064C21.1304 26.656 21.3011 26.7147 21.4184 26.832C21.5358 26.9493 21.5944 27.1147 21.5944 27.328C21.5944 27.552 21.5358 27.7227 21.4184 27.84C21.3011 27.9467 21.1304 28 20.9064 28H15.0664ZM28.6971 28.144C27.5557 28.144 26.5797 27.9093 25.7691 27.44C24.9584 26.9707 24.3344 26.304 23.8971 25.44C23.4704 24.5653 23.2571 23.536 23.2571 22.352C23.2571 21.4667 23.3797 20.672 23.6251 19.968C23.8704 19.2533 24.2224 18.6453 24.6811 18.144C25.1504 17.632 25.7211 17.2427 26.3931 16.976C27.0757 16.7093 27.8437 16.576 28.6971 16.576C29.3264 16.576 29.9291 16.6613 30.5051 16.832C31.0917 17.0027 31.5984 17.248 32.0251 17.568C32.2064 17.6853 32.3237 17.8293 32.3771 18C32.4411 18.16 32.4517 18.3147 32.4091 18.464C32.3771 18.6133 32.3077 18.7413 32.2011 18.848C32.0944 18.944 31.9557 18.9973 31.7851 19.008C31.6251 19.0187 31.4491 18.96 31.2571 18.832C30.9051 18.5653 30.5157 18.368 30.0891 18.24C29.6624 18.112 29.2144 18.048 28.7451 18.048C27.9344 18.048 27.2517 18.2187 26.6971 18.56C26.1424 18.8907 25.7211 19.376 25.4331 20.016C25.1451 20.656 25.0011 21.4347 25.0011 22.352C25.0011 23.2693 25.1451 24.0533 25.4331 24.704C25.7211 25.344 26.1424 25.8347 26.6971 26.176C27.2517 26.5067 27.9344 26.672 28.7451 26.672C29.2144 26.672 29.6624 26.608 30.0891 26.48C30.5264 26.3413 30.9371 26.1387 31.3211 25.872C31.5131 25.7547 31.6837 25.7013 31.8331 25.712C31.9931 25.7227 32.1264 25.776 32.2331 25.872C32.3397 25.968 32.4091 26.0907 32.4411 26.24C32.4837 26.3787 32.4784 26.528 32.4251 26.688C32.3824 26.8373 32.2811 26.9653 32.1211 27.072C31.6837 27.424 31.1664 27.6907 30.5691 27.872C29.9717 28.0533 29.3477 28.144 28.6971 28.144Z" fill="white"/>
</svg>
