<svg width="16" height="16" viewBox="0 0 16 16" fill="none" xmlns="http://www.w3.org/2000/svg">
<g clip-path="url(#clip0_2262_366)">
<path d="M6.58577 6.58667C6.38928 6.76977 6.23167 6.99057 6.12236 7.2359C6.01305 7.48123 5.95427 7.74607 5.94953 8.01461C5.94479 8.28315 5.99419 8.54989 6.09478 8.79893C6.19537 9.04796 6.34509 9.27419 6.53501 9.46411C6.72492 9.65402 6.95115 9.80374 7.20018 9.90433C7.44922 10.0049 7.71596 10.0543 7.9845 10.0496C8.25304 10.0448 8.51788 9.98606 8.76321 9.87675C9.00854 9.76744 9.22934 9.60983 9.41244 9.41334" stroke="black" stroke-linecap="round" stroke-linejoin="round"/>
<path d="M7.1543 3.38665C7.43517 3.35165 7.71792 3.33384 8.00096 3.33331C12.6676 3.33331 14.6676 7.99998 14.6676 7.99998C14.3696 8.63806 13.9958 9.23794 13.5543 9.78665" stroke="black" stroke-linecap="round" stroke-linejoin="round"/>
<path d="M4.40732 4.40668C3.08148 5.30976 2.02057 6.55018 1.33398 8.00001C1.33398 8.00001 3.33398 12.6667 8.00065 12.6667C9.27793 12.6701 10.5278 12.2967 11.594 11.5933" stroke="black" stroke-linecap="round" stroke-linejoin="round"/>
<path d="M1.33398 1.33331L14.6673 14.6666" stroke="black" stroke-linecap="round" stroke-linejoin="round"/>
</g>
<defs>
<clipPath id="clip0_2262_366">
<rect width="16" height="16" fill="white"/>
</clipPath>
</defs>
</svg>
