<svg width="56" height="57" viewBox="0 0 56 57" fill="none" xmlns="http://www.w3.org/2000/svg">
<path d="M25.667 47.1665C21.5698 47.1789 17.6176 45.651 14.5942 42.8858C11.5708 40.1206 9.69715 36.3201 9.34474 32.2381C8.99234 28.1561 10.187 24.0907 12.6917 20.8482C15.1964 17.6058 18.8283 15.4231 22.867 14.7332C36.167 12.1665 39.667 10.9532 44.3337 5.1665C46.667 9.83317 49.0004 14.9198 49.0004 23.8332C49.0004 36.6665 37.847 47.1665 25.667 47.1665Z" fill="#2E7D32" stroke="#225D25" stroke-linecap="round" stroke-linejoin="round"/>
<path d="M4.66699 49.5C4.66699 42.5 8.98366 36.9933 16.5203 35.5C22.167 34.38 28.0003 30.8333 30.3337 28.5" stroke="#225D25" stroke-linecap="round" stroke-linejoin="round"/>
</svg>
