<svg width="11" height="26" viewBox="0 0 11 26" fill="none" xmlns="http://www.w3.org/2000/svg">
<path fill-rule="evenodd" clip-rule="evenodd" d="M6.94086 2.14455C8.1835 2.14455 9.19086 3.15191 9.19086 4.39454L9.1908 19.865C9.1908 21.9361 7.51187 23.615 5.4408 23.615C3.36973 23.615 1.6908 21.9361 1.6908 19.865L1.6908 8.98551C1.6908 8.5713 1.35501 8.23551 0.940802 8.23551C0.526587 8.23551 0.190801 8.5713 0.190801 8.98551L0.190799 19.865C0.190801 22.7645 2.54131 25.115 5.4408 25.115C8.3403 25.115 10.6908 22.7645 10.6908 19.865L10.6909 4.39455C10.6909 2.32348 9.01192 0.644547 6.94086 0.644547C4.86979 0.644546 3.19086 2.32348 3.19086 4.39454L3.19086 19.856C3.19081 19.86 3.19079 19.8641 3.19081 19.8682L3.19086 19.8778L3.19086 19.8809L3.19088 19.8841C3.20119 21.118 4.20452 22.115 5.4408 22.115C6.68344 22.115 7.6908 21.1077 7.6908 19.8651L7.69093 8.81921C7.69094 8.405 7.35515 8.06921 6.94094 8.0692C6.52673 8.0692 6.19094 8.40498 6.19093 8.81919L6.1908 19.865C6.1908 20.2792 5.85501 20.615 5.4408 20.615C5.02963 20.615 4.69568 20.2841 4.69086 19.8742L4.69086 4.39455C4.69086 3.1519 5.69822 2.14455 6.94086 2.14455Z" fill="#0F172A"/>
</svg>
