<svg width="48" height="48" viewBox="0 0 48 48" fill="none" xmlns="http://www.w3.org/2000/svg">
<path d="M23.9998 12.75C23.9998 18.9632 19.0658 24 12.9794 24H1.95898V12.75C1.95898 6.53679 6.89298 1.5 12.9794 1.5C19.0658 1.5 23.9998 6.53679 23.9998 12.75Z" fill="white"/>
<path d="M24 35.25C24 29.0368 28.934 24 35.0204 24H46.0408V35.25C46.0408 41.4632 41.1068 46.5 35.0204 46.5C28.934 46.5 24 41.4632 24 35.25Z" fill="white"/>
<path d="M1.95898 35.25C1.95898 41.4632 6.89298 46.5 12.9794 46.5H23.9998V35.25C23.9998 29.0368 19.0658 24 12.9794 24C6.89298 24 1.95898 29.0368 1.95898 35.25Z" fill="white"/>
<path d="M46.0408 12.75C46.0408 6.53679 41.1068 1.5 35.0204 1.5H24V12.75C24 18.9632 28.934 24 35.0204 24C41.1068 24 46.0408 18.9632 46.0408 12.75Z" fill="white"/>
</svg>
