<svg width="14" height="14" viewBox="0 0 14 14" fill="none" xmlns="http://www.w3.org/2000/svg">
<g clip-path="url(#clip0_2342_7791)">
<path d="M4.66732 12.8333C4.98948 12.8333 5.25065 12.5722 5.25065 12.25C5.25065 11.9278 4.98948 11.6667 4.66732 11.6667C4.34515 11.6667 4.08398 11.9278 4.08398 12.25C4.08398 12.5722 4.34515 12.8333 4.66732 12.8333Z" stroke="#2E7D32" stroke-linecap="round" stroke-linejoin="round"/>
<path d="M11.0833 12.8333C11.4055 12.8333 11.6667 12.5722 11.6667 12.25C11.6667 11.9278 11.4055 11.6667 11.0833 11.6667C10.7612 11.6667 10.5 11.9278 10.5 12.25C10.5 12.5722 10.7612 12.8333 11.0833 12.8333Z" stroke="#2E7D32" stroke-linecap="round" stroke-linejoin="round"/>
<path d="M1.19531 1.19583H2.36198L3.91365 8.44083C3.97057 8.70617 4.1182 8.94336 4.33114 9.11158C4.54408 9.27981 4.80901 9.36853 5.08031 9.3625H10.7853C11.0508 9.36207 11.3083 9.27108 11.5151 9.10457C11.7219 8.93805 11.8657 8.70597 11.9228 8.44666L12.8853 4.1125H2.98615" stroke="#2E7D32" stroke-linecap="round" stroke-linejoin="round"/>
</g>
<defs>
<clipPath id="clip0_2342_7791">
<rect width="14" height="14" fill="white"/>
</clipPath>
</defs>
</svg>
