<svg width="14" height="14" viewBox="0 0 14 14" fill="none" xmlns="http://www.w3.org/2000/svg">
<path d="M2.1875 3.5C2.1875 2.77513 2.77513 2.1875 3.5 2.1875H4.8125C5.53737 2.1875 6.125 2.77513 6.125 3.5V4.8125C6.125 5.53737 5.53737 6.125 4.8125 6.125H3.5C2.77513 6.125 2.1875 5.53737 2.1875 4.8125V3.5Z" stroke="#115E59" stroke-width="1.5" stroke-linecap="round" stroke-linejoin="round"/>
<path d="M2.1875 9.1875C2.1875 8.46263 2.77513 7.875 3.5 7.875H4.8125C5.53737 7.875 6.125 8.46263 6.125 9.1875V10.5C6.125 11.2249 5.53737 11.8125 4.8125 11.8125H3.5C2.77513 11.8125 2.1875 11.2249 2.1875 10.5V9.1875Z" stroke="#115E59" stroke-width="1.5" stroke-linecap="round" stroke-linejoin="round"/>
<path d="M7.875 3.5C7.875 2.77513 8.46263 2.1875 9.1875 2.1875H10.5C11.2249 2.1875 11.8125 2.77513 11.8125 3.5V4.8125C11.8125 5.53737 11.2249 6.125 10.5 6.125H9.1875C8.46263 6.125 7.875 5.53737 7.875 4.8125V3.5Z" stroke="#115E59" stroke-width="1.5" stroke-linecap="round" stroke-linejoin="round"/>
<path d="M7.875 9.1875C7.875 8.46263 8.46263 7.875 9.1875 7.875H10.5C11.2249 7.875 11.8125 8.46263 11.8125 9.1875V10.5C11.8125 11.2249 11.2249 11.8125 10.5 11.8125H9.1875C8.46263 11.8125 7.875 11.2249 7.875 10.5V9.1875Z" stroke="#115E59" stroke-width="1.5" stroke-linecap="round" stroke-linejoin="round"/>
</svg>
