<svg width="46" height="47" viewBox="0 0 46 47" fill="none" xmlns="http://www.w3.org/2000/svg">
<path d="M31.7495 14.75C32.716 14.75 33.4995 15.5335 33.4995 16.5C33.4995 19.1136 32.3513 21.4613 30.5377 23.062C29.8131 23.7016 28.7072 23.6327 28.0676 22.908C27.4281 22.1834 27.497 21.0775 28.2216 20.438C29.3145 19.4734 29.9995 18.0678 29.9995 16.5C29.9995 15.5335 30.783 14.75 31.7495 14.75Z" fill="#2E7D32"/>
<path fill-rule="evenodd" clip-rule="evenodd" d="M23 0.75C10.4355 0.75 0.25 10.9355 0.25 23.5C0.25 36.0645 10.4355 46.25 23 46.25C35.5645 46.25 45.75 36.0645 45.75 23.5C45.75 10.9355 35.5645 0.75 23 0.75ZM5.67477 31.9005C8.79456 38.3229 15.3803 42.75 23 42.75C24.5453 42.75 26.048 42.5679 27.4879 42.2241C26.8183 40.4407 25.1102 39.25 23.1933 39.25C22.0719 39.25 21.1149 38.4393 20.9305 37.3332L20.7603 36.3117C20.5408 34.9948 21.3447 33.7229 22.6284 33.3562L24.9355 32.697C25.9324 32.4122 26.764 31.722 27.2277 30.7947L27.3128 30.6243C27.8872 29.4756 29.0613 28.75 30.3455 28.75C31.2448 28.75 32.1072 29.1072 32.7431 29.7431L33.5 30.5H34.966C36.9227 30.5 38.6893 31.5842 39.5919 33.2667C41.281 30.4035 42.25 27.0649 42.25 23.5C42.25 13.4709 34.5804 5.23308 24.7865 4.3318C24.8899 4.94539 25.2092 5.50767 25.6945 5.9121L28.1879 7.98995C29.2185 8.84876 29.4357 10.3464 28.6916 11.4626L27.4992 13.2512C26.8516 14.2226 25.8987 14.9504 24.7911 15.3196L24.4592 15.4303C22.843 15.969 22.1814 17.8971 23.1265 19.3147C23.9885 20.6078 23.5222 22.3639 22.1321 23.0589L16 26.125L16.9879 28.5948C17.4187 29.6717 16.9521 30.899 15.9147 31.4177C14.9507 31.8997 13.78 31.6233 13.1333 30.7611L11.5484 28.6479C10.3776 27.0868 7.97322 27.3036 7.10053 29.0489L5.67477 31.9005Z" fill="#2E7D32"/>
</svg>
