<svg width="24" height="24" viewBox="0 0 24 24" fill="none" xmlns="http://www.w3.org/2000/svg">
<path fill-rule="evenodd" clip-rule="evenodd" d="M7.49984 6C7.49984 3.51472 9.51456 1.5 11.9998 1.5C14.4851 1.5 16.4998 3.51472 16.4998 6C16.4998 8.48528 14.4851 10.5 11.9998 10.5C9.51456 10.5 7.49984 8.48528 7.49984 6Z" fill="#141414"/>
<path fill-rule="evenodd" clip-rule="evenodd" d="M3.75109 20.1053C3.82843 15.6156 7.49183 12 11.9998 12C16.508 12 20.1714 15.6157 20.2486 20.1056C20.2537 20.4034 20.0822 20.676 19.8115 20.8002C17.4326 21.8918 14.7864 22.5 12.0002 22.5C9.2137 22.5 6.56728 21.8917 4.18816 20.7999C3.91749 20.6757 3.74596 20.4031 3.75109 20.1053Z" fill="#141414"/>
</svg>
